<?xml version="1.0" encoding="UTF-8"?>
<svg id="Layer_2" data-name="Layer 2" xmlns="http://www.w3.org/2000/svg" xmlns:xlink="http://www.w3.org/1999/xlink" viewBox="0 0 409.02 136.13">
  <defs>
    <style>
      .cls-1 {
        stroke: #cc2634;
        stroke-width: 1.23px;
      }

      .cls-1, .cls-2, .cls-3 {
        fill: none;
        stroke-linecap: round;
        stroke-linejoin: round;
      }

      .cls-2 {
        stroke-dasharray: 0 16.4;
      }

      .cls-2, .cls-3 {
        stroke: #ba202e;
        stroke-width: 4.74px;
      }

      .cls-4 {
        fill: url(#linear-gradient-3);
      }

      .cls-5 {
        fill: url(#linear-gradient-2);
      }

      .cls-6 {
        fill: url(#linear-gradient);
      }

      .cls-7 {
        fill: #ef6522;
      }
    </style>
    <linearGradient id="linear-gradient" x1="362.96" y1="75.72" x2="490.43" y2="160.7" gradientUnits="userSpaceOnUse">
      <stop offset="0" stop-color="#f9ec42"/>
      <stop offset=".05" stop-color="#f9df31"/>
      <stop offset=".12" stop-color="#fad01f"/>
      <stop offset=".2" stop-color="#fac713"/>
      <stop offset=".28" stop-color="#fbc510"/>
      <stop offset=".67" stop-color="#f08d3f"/>
      <stop offset=".89" stop-color="#eb683c"/>
      <stop offset="1" stop-color="#e63e39"/>
    </linearGradient>
    <linearGradient id="linear-gradient-2" x1="391.49" y1="66.34" x2="397.31" y2="114.66" xlink:href="#linear-gradient"/>
    <linearGradient id="linear-gradient-3" x1="365.74" y1="72.27" x2="421.03" y2="122.91" xlink:href="#linear-gradient"/>
  </defs>
  <g id="Text">
    <g>
      <g>
        <path class="cls-7" d="M73.48,0h12.15c8.2,0,14.5,2.9,14.5,11.65s-6.35,12.25-14.3,12.25h-4.95v13.15h-7.4V0ZM85.33,18.05c5.1,0,7.55-2.15,7.55-6.4s-2.7-5.75-7.8-5.75h-4.2v12.15h4.45Z"/>
        <path class="cls-7" d="M106.83,0h12.9c7.75,0,13.9,2.75,13.9,11.25,0,5.55-2.8,9-7.05,10.65l8.65,15.15h-8.25l-7.6-14h-5.15v14h-7.4V0ZM119.03,17.2c4.75,0,7.4-2,7.4-5.95s-2.65-5.35-7.4-5.35h-4.8v11.3h4.8Z"/>
        <path class="cls-7" d="M140.93,0h22.7v6.2h-15.3v8.55h13v6.2h-13v9.9h15.85v6.2h-23.25V0Z"/>
        <path class="cls-7" d="M171.68,0h7.4v30.85h15.05v6.2h-22.45V0Z"/>
        <path class="cls-7" d="M200.58,0h7.4v37.05h-7.4V0Z"/>
        <path class="cls-7" d="M217.08,0h8.2l6.3,17.35c.8,2.3,1.5,4.75,2.25,7.1h.25c.8-2.35,1.45-4.8,2.25-7.1l6.15-17.35h8.2v37.05h-6.75v-15.45c0-3.5.55-8.65.95-12.15h-.25l-3,8.7-5.7,15.55h-4.25l-5.75-15.55-2.95-8.7h-.2c.35,3.5.95,8.65.95,12.15v15.45h-6.65V0Z"/>
        <path class="cls-7" d="M259.78,0h7.4v37.05h-7.4V0Z"/>
        <path class="cls-7" d="M276.28,0h7.55l10.75,19.75,3.7,8h.25c-.35-3.85-.95-8.75-.95-12.95V0h7v37.05h-7.5l-10.7-19.8-3.75-7.95h-.25c.35,4,.9,8.65.9,12.9v14.85h-7V0Z"/>
        <path class="cls-7" d="M320.83,0h8.7l11.9,37.05h-7.75l-2.6-9.5h-12l-2.6,9.5h-7.5L320.83,0ZM320.68,21.8h8.8l-1.1-4.05c-1.15-3.85-2.15-8.1-3.2-12.1h-.25c-.95,4.05-2.05,8.25-3.15,12.1l-1.1,4.05Z"/>
        <path class="cls-7" d="M345.78,0h12.9c7.75,0,13.9,2.75,13.9,11.25,0,5.55-2.8,9-7.05,10.65l8.65,15.15h-8.25l-7.6-14h-5.15v14h-7.4V0ZM357.98,17.2c4.75,0,7.4-2,7.4-5.95s-2.65-5.35-7.4-5.35h-4.8v11.3h4.8Z"/>
        <path class="cls-7" d="M386.13,23.5l-11.1-23.5h7.85l3.7,9.05c1.05,2.75,2.05,5.35,3.2,8.2h.2c1.15-2.85,2.25-5.45,3.3-8.2l3.7-9.05h7.7l-11.15,23.5v13.55h-7.4v-13.55Z"/>
        <path class="cls-7" d="M73.48,48.09h10.15c11.3,0,18.3,5.9,18.3,18.4s-7,18.65-17.9,18.65h-10.55v-37.05ZM83.18,79.19c6.9,0,11.2-3.7,11.2-12.7s-4.3-12.45-11.2-12.45h-2.3v25.15h2.3Z"/>
        <path class="cls-7" d="M109.18,48.09h22.7v6.2h-15.3v8.55h13v6.2h-13v9.9h15.85v6.2h-23.25v-37.05Z"/>
        <path class="cls-7" d="M137.48,80.44l4.25-5.1c2.65,2.45,6.15,4.1,9.4,4.1,3.85,0,5.9-1.65,5.9-4.25,0-2.75-2.25-3.6-5.55-5l-4.95-2.1c-3.75-1.55-7.5-4.55-7.5-9.95,0-6.05,5.3-10.7,12.8-10.7,4.3,0,8.6,1.7,11.6,4.75l-3.75,4.65c-2.35-1.95-4.8-3.05-7.85-3.05-3.25,0-5.3,1.45-5.3,3.9,0,2.65,2.6,3.6,5.75,4.85l4.85,2.05c4.5,1.85,7.45,4.7,7.45,10.05,0,6.05-5.05,11.2-13.6,11.2-4.95,0-9.9-1.95-13.5-5.4Z"/>
        <path class="cls-7" d="M171.13,48.09h7.4v37.05h-7.4v-37.05Z"/>
        <path class="cls-7" d="M185.78,66.79c0-12.2,7.9-19.35,17.75-19.35,5.35,0,9.05,2.3,11.45,4.75l-3.9,4.7c-1.85-1.75-3.95-3.1-7.3-3.1-6.15,0-10.45,4.8-10.45,12.75s3.7,12.9,11,12.9c1.75,0,3.55-.5,4.6-1.4v-7.3h-6.55v-6.05h13.15v16.7c-2.5,2.45-6.85,4.45-12,4.45-10.05,0-17.75-6.7-17.75-19.05Z"/>
        <path class="cls-7" d="M223.48,48.09h7.55l10.75,19.75,3.7,8h.25c-.35-3.85-.95-8.75-.95-12.95v-14.8h7v37.05h-7.5l-10.7-19.8-3.75-7.95h-.25c.35,4,.9,8.65.9,12.9v14.85h-7v-37.05Z"/>
      </g>
      <line class="cls-1" x1="55.39" y1="1.04" x2="55.39" y2="83.78"/>
      <path class="cls-7" d="M15.19,18.94h-.21l-12.11,6.54-1.82-7.18,15.22-8.15h8.04v69.67h-9.11V18.94Z"/>
      <g>
        <line class="cls-3" x1="2.37" y1="105.68" x2="2.37" y2="105.68"/>
        <line class="cls-2" x1="18.77" y1="105.68" x2="387.8" y2="105.68"/>
        <line class="cls-3" x1="396" y1="105.68" x2="396" y2="105.68"/>
      </g>
      <g>
        <polygon class="cls-6" points="409.02 100.87 400.69 96.07 392.36 100.87 400.69 105.68 409.02 100.87"/>
        <polygon class="cls-5" points="400.69 105.68 392.36 100.87 392.36 110.49 400.69 115.3 400.69 105.68"/>
        <polygon class="cls-4" points="409.02 100.87 400.69 105.68 400.69 115.3 409.02 110.49 409.02 100.87"/>
      </g>
      <polygon class="cls-7" points="2.37 136.13 182.29 136.13 197.75 115.96 2.37 115.96 2.37 136.13"/>
    </g>
  </g>
</svg>