<?xml version="1.0" encoding="UTF-8"?>
<svg id="Layer_2" data-name="Layer 2" xmlns="http://www.w3.org/2000/svg" xmlns:xlink="http://www.w3.org/1999/xlink" viewBox="0 0 336.96 136.13">
  <defs>
    <style>
      .cls-1 {
        stroke: #cc2634;
        stroke-width: 1.23px;
      }

      .cls-1, .cls-2, .cls-3 {
        fill: none;
        stroke-linecap: round;
        stroke-linejoin: round;
      }

      .cls-4 {
        fill: url(#linear-gradient-3);
      }

      .cls-5 {
        fill: url(#linear-gradient-2);
      }

      .cls-2, .cls-3 {
        stroke: #bb202e;
        stroke-width: 4.74px;
      }

      .cls-6 {
        fill: url(#linear-gradient);
      }

      .cls-7 {
        fill: #f38833;
      }

      .cls-3 {
        stroke-dasharray: 0 16.91;
      }
    </style>
    <linearGradient id="linear-gradient" x1="290.9" y1="75.72" x2="418.38" y2="160.7" gradientUnits="userSpaceOnUse">
      <stop offset="0" stop-color="#f9ec42"/>
      <stop offset=".05" stop-color="#f9df31"/>
      <stop offset=".12" stop-color="#fad01f"/>
      <stop offset=".2" stop-color="#fac713"/>
      <stop offset=".28" stop-color="#fbc510"/>
      <stop offset=".67" stop-color="#f08d3f"/>
      <stop offset=".89" stop-color="#eb683c"/>
      <stop offset="1" stop-color="#e63e39"/>
    </linearGradient>
    <linearGradient id="linear-gradient-2" x1="319.44" y1="66.34" x2="325.26" y2="114.66" xlink:href="#linear-gradient"/>
    <linearGradient id="linear-gradient-3" x1="293.68" y1="72.27" x2="348.98" y2="122.91" xlink:href="#linear-gradient"/>
  </defs>
  <g id="Text">
    <g>
      <g>
        <path class="cls-7" d="M90.28,0h10.15c11.3,0,18.3,5.9,18.3,18.4s-7,18.65-17.9,18.65h-10.55V0ZM99.99,31.1c6.9,0,11.2-3.7,11.2-12.7s-4.3-12.45-11.2-12.45h-2.3v25.15h2.3Z"/>
        <path class="cls-7" d="M125.98,0h22.7v6.2h-15.3v8.55h13v6.2h-13v9.9h15.85v6.2h-23.25V0Z"/>
        <path class="cls-7" d="M164.08,6.2h-10.4V0h28.3v6.2h-10.5v30.85h-7.4V6.2Z"/>
        <path class="cls-7" d="M195.08,0h8.7l11.9,37.05h-7.75l-2.6-9.5h-12l-2.6,9.5h-7.5L195.08,0ZM194.93,21.8h8.8l-1.1-4.05c-1.15-3.85-2.15-8.1-3.2-12.1h-.25c-.95,4.05-2.05,8.25-3.15,12.1l-1.1,4.05Z"/>
        <path class="cls-7" d="M220.03,0h7.4v37.05h-7.4V0Z"/>
        <path class="cls-7" d="M236.53,0h7.4v30.85h15.05v6.2h-22.45V0Z"/>
        <path class="cls-7" d="M265.43,0h22.7v6.2h-15.3v8.55h13v6.2h-13v9.9h15.85v6.2h-23.25V0Z"/>
        <path class="cls-7" d="M296.18,0h10.15c11.3,0,18.3,5.9,18.3,18.4s-7,18.65-17.9,18.65h-10.55V0ZM305.88,31.1c6.9,0,11.2-3.7,11.2-12.7s-4.3-12.45-11.2-12.45h-2.3v25.15h2.3Z"/>
        <path class="cls-7" d="M90.28,48.09h10.15c11.3,0,18.3,5.9,18.3,18.4s-7,18.65-17.9,18.65h-10.55v-37.05ZM99.99,79.19c6.9,0,11.2-3.7,11.2-12.7s-4.3-12.45-11.2-12.45h-2.3v25.15h2.3Z"/>
        <path class="cls-7" d="M125.98,48.09h22.7v6.2h-15.3v8.55h13v6.2h-13v9.9h15.85v6.2h-23.25v-37.05Z"/>
        <path class="cls-7" d="M154.28,80.44l4.25-5.1c2.65,2.45,6.15,4.1,9.4,4.1,3.85,0,5.9-1.65,5.9-4.25,0-2.75-2.25-3.6-5.55-5l-4.95-2.1c-3.75-1.55-7.5-4.55-7.5-9.95,0-6.05,5.3-10.7,12.8-10.7,4.3,0,8.6,1.7,11.6,4.75l-3.75,4.65c-2.35-1.95-4.8-3.05-7.85-3.05-3.25,0-5.3,1.45-5.3,3.9,0,2.65,2.6,3.6,5.75,4.85l4.85,2.05c4.5,1.85,7.45,4.7,7.45,10.05,0,6.05-5.05,11.2-13.6,11.2-4.95,0-9.9-1.95-13.5-5.4Z"/>
        <path class="cls-7" d="M187.93,48.09h7.4v37.05h-7.4v-37.05Z"/>
        <path class="cls-7" d="M202.58,66.79c0-12.2,7.9-19.35,17.75-19.35,5.35,0,9.05,2.3,11.45,4.75l-3.9,4.7c-1.85-1.75-3.95-3.1-7.3-3.1-6.15,0-10.45,4.8-10.45,12.75s3.7,12.9,11,12.9c1.75,0,3.55-.5,4.6-1.4v-7.3h-6.55v-6.05h13.15v16.7c-2.5,2.45-6.85,4.45-12,4.45-10.05,0-17.75-6.7-17.75-19.05Z"/>
        <path class="cls-7" d="M240.28,48.09h7.55l10.75,19.75,3.7,8h.25c-.35-3.85-.95-8.75-.95-12.95v-14.8h7v37.05h-7.5l-10.7-19.8-3.75-7.95h-.25c.35,4,.9,8.65.9,12.9v14.85h-7v-37.05Z"/>
      </g>
      <line class="cls-1" x1="72.19" y1="1.04" x2="72.19" y2="83.78"/>
      <path class="cls-7" d="M0,79.82v-5.79l7.39-7.18c17.79-16.93,25.83-25.94,25.94-36.44,0-7.07-3.43-13.61-13.83-13.61-6.32,0-11.58,3.22-14.79,5.89l-3-6.64c4.82-4.07,11.68-7.07,19.72-7.07,15,0,21.33,10.29,21.33,20.26,0,12.86-9.32,23.26-24.01,37.41l-5.57,5.14v.21h31.3v7.82H0Z"/>
      <g>
        <line class="cls-2" x1="2.65" y1="105.68" x2="2.65" y2="105.68"/>
        <line class="cls-3" x1="19.56" y1="105.68" x2="315.49" y2="105.68"/>
        <line class="cls-2" x1="323.94" y1="105.68" x2="323.94" y2="105.68"/>
      </g>
      <g>
        <polygon class="cls-6" points="336.96 100.87 328.63 96.07 320.3 100.87 328.63 105.68 336.96 100.87"/>
        <polygon class="cls-5" points="328.63 105.68 320.3 100.87 320.3 110.49 328.63 115.3 328.63 105.68"/>
        <polygon class="cls-4" points="336.96 100.87 328.63 105.68 328.63 115.3 336.96 110.49 336.96 100.87"/>
      </g>
      <polygon class="cls-7" points="2.65 136.13 199.09 136.13 214.55 115.96 2.65 115.96 2.65 136.13"/>
    </g>
  </g>
</svg>