<?xml version="1.0" encoding="UTF-8"?>
<svg id="Layer_2" data-name="Layer 2" xmlns="http://www.w3.org/2000/svg" xmlns:xlink="http://www.w3.org/1999/xlink" viewBox="0 0 379.14 134.09">
  <defs>
    <style>
      .cls-1 {
        fill: url(#linear-gradient-3);
      }

      .cls-2 {
        fill: url(#linear-gradient-2);
      }

      .cls-3 {
        fill: url(#linear-gradient);
      }

      .cls-4 {
        fill: #dea639;
      }

      .cls-5 {
        stroke: #c02a31;
        stroke-width: 1.23px;
      }

      .cls-5, .cls-6, .cls-7 {
        fill: none;
        stroke-linecap: round;
        stroke-linejoin: round;
      }

      .cls-6 {
        stroke-dasharray: 0 16.53;
      }

      .cls-6, .cls-7 {
        stroke: #ae252c;
        stroke-width: 4.74px;
      }
    </style>
    <linearGradient id="linear-gradient" x1="333.09" y1="73.68" x2="460.56" y2="158.66" gradientUnits="userSpaceOnUse">
      <stop offset="0" stop-color="#f6e756"/>
      <stop offset=".03" stop-color="#f6de50"/>
      <stop offset=".11" stop-color="#f6cc44"/>
      <stop offset=".19" stop-color="#f6c03c"/>
      <stop offset=".28" stop-color="#f7bd3a"/>
      <stop offset=".67" stop-color="#e98344"/>
      <stop offset=".89" stop-color="#e3613d"/>
      <stop offset="1" stop-color="#dd3d37"/>
    </linearGradient>
    <linearGradient id="linear-gradient-2" x1="361.62" y1="64.3" x2="367.44" y2="112.61" xlink:href="#linear-gradient"/>
    <linearGradient id="linear-gradient-3" x1="335.86" y1="70.22" x2="391.16" y2="120.86" xlink:href="#linear-gradient"/>
  </defs>
  <g id="Text">
    <g>
      <g>
        <path class="cls-4" d="M106.96,30.7h-10.4v-6.2h28.3v6.2h-10.5v30.85h-7.4v-30.85Z"/>
        <path class="cls-4" d="M129.61,24.5h22.7v6.2h-15.3v8.55h13v6.2h-13v9.9h15.85v6.2h-23.25V24.5Z"/>
        <path class="cls-4" d="M159.11,24.5h7.55l10.75,19.75,3.7,8h.25c-.35-3.85-.95-8.75-.95-12.95v-14.8h7v37.05h-7.5l-10.7-19.8-3.75-7.95h-.25c.35,4,.9,8.65.9,12.9v14.85h-7V24.5Z"/>
        <path class="cls-4" d="M195.31,24.5h10.15c11.3,0,18.3,5.9,18.3,18.4s-7,18.65-17.9,18.65h-10.55V24.5ZM205.01,55.6c6.9,0,11.2-3.7,11.2-12.7s-4.3-12.45-11.2-12.45h-2.3v25.15h2.3Z"/>
        <path class="cls-4" d="M229.76,24.5h22.7v6.2h-15.3v8.55h13v6.2h-13v9.9h15.85v6.2h-23.25V24.5Z"/>
        <path class="cls-4" d="M259.26,24.5h12.9c7.75,0,13.9,2.75,13.9,11.25,0,5.55-2.8,9-7.05,10.65l8.65,15.15h-8.25l-7.6-14h-5.15v14h-7.4V24.5ZM271.46,41.7c4.75,0,7.4-2,7.4-5.95s-2.65-5.35-7.4-5.35h-4.8v11.3h4.8Z"/>
        <path class="cls-4" d="M292.11,24.5h7.4v37.05h-7.4V24.5Z"/>
        <path class="cls-4" d="M307.36,24.5h7.55l10.75,19.75,3.7,8h.25c-.35-3.85-.95-8.75-.95-12.95v-14.8h7v37.05h-7.5l-10.7-19.8-3.75-7.95h-.25c.35,4,.9,8.65.9,12.9v14.85h-7V24.5Z"/>
        <path class="cls-4" d="M341.71,43.2c0-12.2,7.9-19.35,17.75-19.35,5.35,0,9.05,2.3,11.45,4.75l-3.9,4.7c-1.85-1.75-3.95-3.1-7.3-3.1-6.15,0-10.45,4.8-10.45,12.75s3.7,12.9,11,12.9c1.75,0,3.55-.5,4.6-1.4v-7.3h-6.55v-6.05h13.15v16.7c-2.5,2.45-6.85,4.45-12,4.45-10.05,0-17.75-6.7-17.75-19.05Z"/>
      </g>
      <line class="cls-5" x1="85.28" y1=".62" x2="85.28" y2="81.74"/>
      <path class="cls-4" d="M4.18,66.95c2.68,1.71,8.9,4.39,15.43,4.39,12.11,0,15.86-7.72,15.76-13.5-.11-9.75-8.9-13.93-18.01-13.93h-5.25v-7.07h5.25c6.86,0,15.54-3.54,15.54-11.79,0-5.57-3.54-10.5-12.22-10.5-5.57,0-10.93,2.46-13.93,4.61l-2.46-6.86c3.64-2.68,10.72-5.36,18.22-5.36,13.72,0,19.93,8.15,19.93,16.61,0,7.18-4.29,13.29-12.86,16.4v.21c8.57,1.71,15.54,8.15,15.54,17.9,0,11.15-8.68,20.9-25.4,20.9-7.82,0-14.68-2.46-18.11-4.72l2.57-7.29Z"/>
      <polygon class="cls-4" points="2.37 134.09 253.56 134.09 269.02 113.91 2.37 113.91 2.37 134.09"/>
      <g>
        <line class="cls-7" x1="2.37" y1="103.64" x2="2.37" y2="103.64"/>
        <line class="cls-6" x1="18.9" y1="103.64" x2="357.86" y2="103.64"/>
        <line class="cls-7" x1="366.12" y1="103.64" x2="366.12" y2="103.64"/>
      </g>
      <g>
        <polygon class="cls-3" points="379.14 98.83 370.81 94.02 362.48 98.83 370.81 103.64 379.14 98.83"/>
        <polygon class="cls-2" points="370.81 103.64 362.48 98.83 362.48 108.45 370.81 113.26 370.81 103.64"/>
        <polygon class="cls-1" points="379.14 98.83 370.81 103.64 370.81 113.26 379.14 108.45 379.14 98.83"/>
      </g>
    </g>
  </g>
</svg>