<?xml version="1.0" encoding="UTF-8"?>
<svg id="Layer_2" data-name="Layer 2" xmlns="http://www.w3.org/2000/svg" xmlns:xlink="http://www.w3.org/1999/xlink" viewBox="0 0 481.58 134.09">
  <defs>
    <style>
      .cls-1 {
        stroke: #cc2634;
        stroke-width: 1.23px;
      }

      .cls-1, .cls-2, .cls-3 {
        fill: none;
        stroke-linecap: round;
        stroke-linejoin: round;
      }

      .cls-4 {
        fill: url(#linear-gradient-3);
      }

      .cls-5 {
        fill: url(#linear-gradient-2);
      }

      .cls-2, .cls-3 {
        stroke: #bb202e;
        stroke-width: 4.74px;
      }

      .cls-6 {
        fill: url(#linear-gradient);
      }

      .cls-3 {
        stroke-dasharray: 0 16.6;
      }

      .cls-7 {
        fill: #dbaa72;
      }
    </style>
    <linearGradient id="linear-gradient" x1="435.52" y1="73.68" x2="563" y2="158.66" gradientUnits="userSpaceOnUse">
      <stop offset="0" stop-color="#f9ec42"/>
      <stop offset=".05" stop-color="#f9df31"/>
      <stop offset=".12" stop-color="#fad01f"/>
      <stop offset=".2" stop-color="#fac713"/>
      <stop offset=".28" stop-color="#fbc510"/>
      <stop offset=".67" stop-color="#f08d3f"/>
      <stop offset=".89" stop-color="#eb683c"/>
      <stop offset="1" stop-color="#e63e39"/>
    </linearGradient>
    <linearGradient id="linear-gradient-2" x1="464.06" y1="64.3" x2="469.88" y2="112.61" xlink:href="#linear-gradient"/>
    <linearGradient id="linear-gradient-3" x1="438.3" y1="70.22" x2="493.6" y2="120.86" xlink:href="#linear-gradient"/>
  </defs>
  <g id="Text">
    <g>
      <g>
        <path class="cls-7" d="M99.05,43.2c0-12.2,7.85-19.35,17.2-19.35,4.7,0,8.45,2.25,10.85,4.75l-3.85,4.7c-1.9-1.8-4.05-3.1-6.85-3.1-5.6,0-9.8,4.8-9.8,12.75s3.8,12.9,9.65,12.9c3.2,0,5.65-1.5,7.65-3.65l3.9,4.6c-3.05,3.55-7,5.45-11.8,5.45-9.35,0-16.95-6.7-16.95-19.05Z"/>
        <path class="cls-7" d="M130.6,42.9c0-12.05,6.75-19.05,16.55-19.05s16.55,7.05,16.55,19.05-6.75,19.35-16.55,19.35-16.55-7.35-16.55-19.35ZM156.15,42.9c0-7.95-3.5-12.7-9-12.7s-9,4.75-9,12.7,3.5,12.95,9,12.95,9-5.05,9-12.95Z"/>
        <path class="cls-7" d="M169.7,24.5h7.55l10.75,19.75,3.7,8h.25c-.35-3.85-.95-8.75-.95-12.95v-14.8h7v37.05h-7.5l-10.7-19.8-3.75-7.95h-.25c.35,4,.9,8.65.9,12.9v14.85h-7V24.5Z"/>
        <path class="cls-7" d="M203.45,56.85l4.25-5.1c2.65,2.45,6.15,4.1,9.4,4.1,3.85,0,5.9-1.65,5.9-4.25,0-2.75-2.25-3.6-5.55-5l-4.95-2.1c-3.75-1.55-7.5-4.55-7.5-9.95,0-6.05,5.3-10.7,12.8-10.7,4.3,0,8.6,1.7,11.6,4.75l-3.75,4.65c-2.35-1.95-4.8-3.05-7.85-3.05-3.25,0-5.3,1.45-5.3,3.9,0,2.65,2.6,3.6,5.75,4.85l4.85,2.05c4.5,1.85,7.45,4.7,7.45,10.05,0,6.05-5.05,11.2-13.6,11.2-4.95,0-9.9-1.95-13.5-5.4Z"/>
        <path class="cls-7" d="M243.2,30.7h-10.4v-6.2h28.3v6.2h-10.5v30.85h-7.4v-30.85Z"/>
        <path class="cls-7" d="M265.85,24.5h12.9c7.75,0,13.9,2.75,13.9,11.25,0,5.55-2.8,9-7.05,10.65l8.65,15.15h-8.25l-7.6-14h-5.15v14h-7.4V24.5ZM278.05,41.7c4.75,0,7.4-2,7.4-5.95s-2.65-5.35-7.4-5.35h-4.8v11.3h4.8Z"/>
        <path class="cls-7" d="M298.5,44.9v-20.4h7.4v21.05c0,7.7,2.7,10.3,7,10.3s7.2-2.6,7.2-10.3v-21.05h7.1v20.4c0,12.3-5.25,17.35-14.3,17.35s-14.4-5.05-14.4-17.35Z"/>
        <path class="cls-7" d="M333,43.2c0-12.2,7.85-19.35,17.2-19.35,4.7,0,8.45,2.25,10.85,4.75l-3.85,4.7c-1.9-1.8-4.05-3.1-6.85-3.1-5.6,0-9.8,4.8-9.8,12.75s3.8,12.9,9.65,12.9c3.2,0,5.65-1.5,7.65-3.65l3.9,4.6c-3.05,3.55-7,5.45-11.8,5.45-9.35,0-16.95-6.7-16.95-19.05Z"/>
        <path class="cls-7" d="M373.75,30.7h-10.4v-6.2h28.3v6.2h-10.5v30.85h-7.4v-30.85Z"/>
        <path class="cls-7" d="M396.39,24.5h7.4v37.05h-7.4V24.5Z"/>
        <path class="cls-7" d="M409.79,42.9c0-12.05,6.75-19.05,16.55-19.05s16.55,7.05,16.55,19.05-6.75,19.35-16.55,19.35-16.55-7.35-16.55-19.35ZM435.35,42.9c0-7.95-3.5-12.7-9-12.7s-9,4.75-9,12.7,3.5,12.95,9,12.95,9-5.05,9-12.95Z"/>
        <path class="cls-7" d="M448.89,24.5h7.55l10.75,19.75,3.7,8h.25c-.35-3.85-.95-8.75-.95-12.95v-14.8h7v37.05h-7.5l-10.7-19.8-3.75-7.95h-.25c.35,4,.9,8.65.9,12.9v14.85h-7V24.5Z"/>
      </g>
      <line class="cls-1" x1="86.57" y1=".62" x2="86.57" y2="81.74"/>
      <path class="cls-7" d="M32.37,77.77v-18.97H0v-6.22L31.08,8.11h10.18v43.3h9.75v7.39h-9.75v18.97h-8.9ZM32.37,51.41v-23.26c0-3.64.11-7.29.32-10.93h-.32c-2.14,4.07-3.86,7.07-5.79,10.29l-17.04,23.69v.21h22.83Z"/>
      <polygon class="cls-7" points="3.66 134.09 254.85 134.09 270.31 113.91 3.66 113.91 3.66 134.09"/>
      <g>
        <line class="cls-2" x1="3.66" y1="103.64" x2="3.66" y2="103.64"/>
        <line class="cls-3" x1="20.26" y1="103.64" x2="460.26" y2="103.64"/>
        <line class="cls-2" x1="468.56" y1="103.64" x2="468.56" y2="103.64"/>
      </g>
      <g>
        <polygon class="cls-6" points="481.58 98.83 473.25 94.02 464.92 98.83 473.25 103.64 481.58 98.83"/>
        <polygon class="cls-5" points="473.25 103.64 464.92 98.83 464.92 108.45 473.25 113.26 473.25 103.64"/>
        <polygon class="cls-4" points="481.58 98.83 473.25 103.64 473.25 113.26 481.58 108.45 481.58 98.83"/>
      </g>
    </g>
  </g>
</svg>