<?xml version="1.0" encoding="UTF-8"?>
<svg id="Layer_2" data-name="Layer 2" xmlns="http://www.w3.org/2000/svg" xmlns:xlink="http://www.w3.org/1999/xlink" viewBox="0 0 457.03 135.93">
  <defs>
    <style>
      .cls-1 {
        stroke: #cc2634;
        stroke-width: 1.23px;
      }

      .cls-1, .cls-2, .cls-3 {
        fill: none;
        stroke-linecap: round;
        stroke-linejoin: round;
      }

      .cls-4 {
        fill: url(#linear-gradient-3);
      }

      .cls-5 {
        fill: url(#linear-gradient-2);
      }

      .cls-2, .cls-3 {
        stroke: #bb202e;
        stroke-width: 4.74px;
      }

      .cls-6 {
        fill: url(#linear-gradient);
      }

      .cls-3 {
        stroke-dasharray: 0 16.36;
      }

      .cls-7 {
        fill: #b99763;
      }
    </style>
    <linearGradient id="linear-gradient" x1="410.98" y1="75.67" x2="538.45" y2="160.66" gradientUnits="userSpaceOnUse">
      <stop offset="0" stop-color="#f9ec42"/>
      <stop offset=".05" stop-color="#f9df31"/>
      <stop offset=".12" stop-color="#fad01f"/>
      <stop offset=".2" stop-color="#fac713"/>
      <stop offset=".28" stop-color="#fbc510"/>
      <stop offset=".67" stop-color="#f08d3f"/>
      <stop offset=".89" stop-color="#eb683c"/>
      <stop offset="1" stop-color="#e63e39"/>
    </linearGradient>
    <linearGradient id="linear-gradient-2" x1="439.51" y1="66.29" x2="445.33" y2="114.61" xlink:href="#linear-gradient"/>
    <linearGradient id="linear-gradient-3" x1="413.76" y1="72.22" x2="469.05" y2="122.86" xlink:href="#linear-gradient"/>
  </defs>
  <g id="Text">
    <g>
      <polygon class="cls-7" points="2.37 135.93 205.56 135.93 221.02 115.76 2.37 115.76 2.37 135.93"/>
      <g>
        <path class="cls-7" d="M95,19.05c0-12.05,6.75-19.05,16.55-19.05s16.55,7.05,16.55,19.05-6.75,19.35-16.55,19.35-16.55-7.35-16.55-19.35ZM120.55,19.05c0-7.95-3.5-12.7-9-12.7s-9,4.75-9,12.7,3.5,12.95,9,12.95,9-5.05,9-12.95Z"/>
        <path class="cls-7" d="M135.35.65h12.15c8.2,0,14.5,2.9,14.5,11.65s-6.35,12.25-14.3,12.25h-4.95v13.15h-7.4V.65ZM147.2,18.7c5.1,0,7.55-2.15,7.55-6.4s-2.7-5.75-7.8-5.75h-4.2v12.15h4.45Z"/>
        <path class="cls-7" d="M168.7.65h22.7v6.2h-15.3v8.55h13v6.2h-13v9.9h15.85v6.2h-23.25V.65Z"/>
        <path class="cls-7" d="M199.45.65h12.9c7.75,0,13.9,2.75,13.9,11.25,0,5.55-2.8,9-7.05,10.65l8.65,15.15h-8.25l-7.6-14h-5.15v14h-7.4V.65ZM211.65,17.85c4.75,0,7.4-2,7.4-5.95s-2.65-5.35-7.4-5.35h-4.8v11.3h4.8Z"/>
        <path class="cls-7" d="M240.65.65h8.7l11.9,37.05h-7.75l-2.6-9.5h-12l-2.6,9.5h-7.5L240.65.65ZM240.5,22.45h8.8l-1.1-4.05c-1.15-3.85-2.15-8.1-3.2-12.1h-.25c-.95,4.05-2.05,8.25-3.15,12.1l-1.1,4.05Z"/>
        <path class="cls-7" d="M272.95,6.85h-10.4V.65h28.3v6.2h-10.5v30.85h-7.4V6.85Z"/>
        <path class="cls-7" d="M296.85.65h7.4v37.05h-7.4V.65Z"/>
        <path class="cls-7" d="M311.49,19.05c0-12.05,6.75-19.05,16.55-19.05s16.55,7.05,16.55,19.05-6.75,19.35-16.55,19.35-16.55-7.35-16.55-19.35ZM337.05,19.05c0-7.95-3.5-12.7-9-12.7s-9,4.75-9,12.7,3.5,12.95,9,12.95,9-5.05,9-12.95Z"/>
        <path class="cls-7" d="M351.84.65h7.55l10.75,19.75,3.7,8h.25c-.35-3.85-.95-8.75-.95-12.95V.65h7v37.05h-7.5l-10.7-19.8-3.75-7.95h-.25c.35,4,.9,8.65.9,12.9v14.85h-7V.65Z"/>
        <path class="cls-7" d="M397.59,27.9c0-5.15,3.25-8.15,6.95-10.5-1.5-2.8-2.35-5.55-2.35-8,0-5.15,3.8-9.4,9.7-9.4,5.3,0,8.6,3.2,8.6,8.05s-4,7.95-7.95,10.7c2.2,2.75,5.05,5.45,8,7.7,1.95-2.6,3.55-5.75,4.55-9.4h6.65c-1.35,4.6-3.35,8.85-6.25,12.7,2.4,1.35,4.65,2.3,6.6,2.65l-1.8,6c-2.95-.65-6.15-1.95-9.25-3.9-3.05,2.4-6.8,3.9-11.35,3.9-7.75,0-12.1-4.75-12.1-10.5ZM410.59,32.75c1.85,0,3.65-.7,5.4-1.85-3.15-2.6-6-5.55-8.35-8.65-1.8,1.55-3.05,3.2-3.05,5.2,0,3.15,2.45,5.3,6,5.3ZM409.64,14.35c2.9-1.75,5.15-3.55,5.15-6.25,0-1.85-.85-3.2-2.75-3.2-2.2,0-3.75,1.75-3.75,4.5,0,1.55.5,3.2,1.35,4.95Z"/>
        <path class="cls-7" d="M96.85,48.74h8.2l6.3,17.35c.8,2.3,1.5,4.75,2.25,7.1h.25c.8-2.35,1.45-4.8,2.25-7.1l6.15-17.35h8.2v37.05h-6.75v-15.45c0-3.5.55-8.65.95-12.15h-.25l-3,8.7-5.7,15.55h-4.25l-5.75-15.55-2.95-8.7h-.2c.35,3.5.95,8.65.95,12.15v15.45h-6.65v-37.05Z"/>
        <path class="cls-7" d="M146.6,48.74h8.7l11.9,37.05h-7.75l-2.6-9.5h-12l-2.6,9.5h-7.5l11.85-37.05ZM146.45,70.54h8.8l-1.1-4.05c-1.15-3.85-2.15-8.1-3.2-12.1h-.25c-.95,4.05-2.05,8.25-3.15,12.1l-1.1,4.05Z"/>
        <path class="cls-7" d="M171.55,48.74h7.4v37.05h-7.4v-37.05Z"/>
        <path class="cls-7" d="M188.05,48.74h7.55l10.75,19.75,3.7,8h.25c-.35-3.85-.95-8.75-.95-12.95v-14.8h7v37.05h-7.5l-10.7-19.8-3.75-7.95h-.25c.35,4,.9,8.65.9,12.9v14.85h-7v-37.05Z"/>
        <path class="cls-7" d="M232.85,54.94h-10.4v-6.2h28.3v6.2h-10.5v30.85h-7.4v-30.85Z"/>
        <path class="cls-7" d="M256.75,48.74h22.7v6.2h-15.3v8.55h13v6.2h-13v9.9h15.85v6.2h-23.25v-37.05Z"/>
        <path class="cls-7" d="M287.49,48.74h7.55l10.75,19.75,3.7,8h.25c-.35-3.85-.95-8.75-.95-12.95v-14.8h7v37.05h-7.5l-10.7-19.8-3.75-7.95h-.25c.35,4,.9,8.65.9,12.9v14.85h-7v-37.05Z"/>
        <path class="cls-7" d="M332.05,48.74h8.7l11.9,37.05h-7.75l-2.6-9.5h-12l-2.6,9.5h-7.5l11.85-37.05ZM331.9,70.54h8.8l-1.1-4.05c-1.15-3.85-2.15-8.1-3.2-12.1h-.25c-.95,4.05-2.05,8.25-3.15,12.1l-1.1,4.05Z"/>
        <path class="cls-7" d="M356.99,48.74h7.55l10.75,19.75,3.7,8h.25c-.35-3.85-.95-8.75-.95-12.95v-14.8h7v37.05h-7.5l-10.7-19.8-3.75-7.95h-.25c.35,4,.9,8.65.9,12.9v14.85h-7v-37.05Z"/>
        <path class="cls-7" d="M392.59,67.44c0-12.2,7.85-19.35,17.2-19.35,4.7,0,8.45,2.25,10.85,4.75l-3.85,4.7c-1.9-1.8-4.05-3.1-6.85-3.1-5.6,0-9.8,4.8-9.8,12.75s3.8,12.9,9.65,12.9c3.2,0,5.65-1.5,7.65-3.65l3.9,4.6c-3.05,3.55-7,5.45-11.8,5.45-9.35,0-16.95-6.7-16.95-19.05Z"/>
        <path class="cls-7" d="M427.24,48.74h22.7v6.2h-15.3v8.55h13v6.2h-13v9.9h15.85v6.2h-23.25v-37.05Z"/>
      </g>
      <line class="cls-1" x1="78.75" y1="1.69" x2="78.75" y2="84.43"/>
      <path class="cls-7" d="M44.14,18.73h-26.58l-2.68,17.9c1.61-.21,3.11-.43,5.68-.43,5.36,0,10.72,1.18,15,3.75,5.47,3.11,9.97,9.11,9.97,17.9,0,13.61-10.83,23.79-25.94,23.79-7.61,0-14.04-2.14-17.36-4.29l2.36-7.18c2.89,1.71,8.57,3.86,14.9,3.86,8.9,0,16.51-5.79,16.51-15.11-.11-9-6.11-15.43-20.04-15.43-3.96,0-7.07.43-9.65.75L10.81,10.8h33.33v7.93Z"/>
      <g>
        <line class="cls-2" x1="2.37" y1="105.63" x2="2.37" y2="105.63"/>
        <line class="cls-3" x1="18.73" y1="105.63" x2="435.84" y2="105.63"/>
        <line class="cls-2" x1="444.01" y1="105.63" x2="444.01" y2="105.63"/>
      </g>
      <g>
        <polygon class="cls-6" points="457.03 100.82 448.7 96.02 440.38 100.82 448.7 105.63 457.03 100.82"/>
        <polygon class="cls-5" points="448.7 105.63 440.38 100.82 440.38 110.44 448.7 115.25 448.7 105.63"/>
        <polygon class="cls-4" points="457.03 100.82 448.7 105.63 448.7 115.25 457.03 110.44 457.03 100.82"/>
      </g>
    </g>
  </g>
</svg>